<svg width="120" height="108" viewBox="0 0 120 108" fill="none" xmlns="http://www.w3.org/2000/svg">
<path d="M80.6402 54.5599C78.1202 54.5599 76.0802 56.5999 75.9602 59.2399C75.9602 61.8799 78.1202 64.0399 80.6402 64.0399C83.2802 64.0399 85.3202 61.8799 85.3202 59.3599C85.4402 56.5999 83.2802 54.5599 80.6402 54.5599ZM44.0402 54.5599C41.4002 54.5599 39.3602 56.7199 39.3602 59.2399C39.3602 61.8799 41.5202 63.9199 44.0402 63.9199C46.6802 63.9199 48.7202 61.7599 48.7202 59.2399C48.7202 56.5999 46.6802 54.5599 44.0402 54.5599Z" fill="white"/>
<path d="M80.6402 54.5599C78.1202 54.5599 76.0802 56.5999 75.9602 59.2399C75.9602 61.8799 78.1202 64.0399 80.6402 64.0399C83.2802 64.0399 85.3202 61.8799 85.3202 59.3599C85.4402 56.5999 83.2802 54.5599 80.6402 54.5599ZM44.0402 54.5599C41.4002 54.5599 39.3602 56.7199 39.3602 59.2399C39.3602 61.8799 41.5202 63.9199 44.0402 63.9199C46.6802 63.9199 48.7202 61.7599 48.7202 59.2399C48.7202 56.5999 46.6802 54.5599 44.0402 54.5599Z" fill="url(#paint0_linear_26_24871)"/>
<path d="M88.44 54.36C87.96 52.8 86.16 51.24 84.36 51C81 50.4 77.76 49.68 74.28 49.2C71.76 48.84 58.92 37.56 41.88 46.68C40.32 47.52 39.24 48.12 37.8 48.24L35.76 48.36C34.2 48.48 33 49.44 32.52 50.76C30.36 55.68 30.72 60.24 36.12 60.6H37.96C37.36 57.48 39.36 53.16 44.04 53.16C48.36 53.16 50.6 57 50.12 60.84L74.68 61.2C73.96 57.48 76.08 53.04 80.64 53.04C84.96 53.04 87.2 57.12 86.72 60.36C87.8 59.28 89.04 56.16 88.44 54.36ZM54.72 50.64C49.56 50.4 44.4 50.04 41.4 49.56C44.64 48 47.4 45.84 54.84 45.72V50.64H54.72ZM57.12 50.64V45.84C59.04 45.96 61.2 46.2 63.72 46.68C65.52 47.28 67.8 48.36 70.32 50.04C67.68 50.52 62.52 50.76 57.12 50.64Z" fill="white"/>
<path d="M88.44 54.36C87.96 52.8 86.16 51.24 84.36 51C81 50.4 77.76 49.68 74.28 49.2C71.76 48.84 58.92 37.56 41.88 46.68C40.32 47.52 39.24 48.12 37.8 48.24L35.76 48.36C34.2 48.48 33 49.44 32.52 50.76C30.36 55.68 30.72 60.24 36.12 60.6H37.96C37.36 57.48 39.36 53.16 44.04 53.16C48.36 53.16 50.6 57 50.12 60.84L74.68 61.2C73.96 57.48 76.08 53.04 80.64 53.04C84.96 53.04 87.2 57.12 86.72 60.36C87.8 59.28 89.04 56.16 88.44 54.36ZM54.72 50.64C49.56 50.4 44.4 50.04 41.4 49.56C44.64 48 47.4 45.84 54.84 45.72V50.64H54.72ZM57.12 50.64V45.84C59.04 45.96 61.2 46.2 63.72 46.68C65.52 47.28 67.8 48.36 70.32 50.04C67.68 50.52 62.52 50.76 57.12 50.64Z" fill="url(#paint1_linear_26_24871)"/>
<path d="M89.7377 104.915C90.8349 106.631 93.1084 107.167 94.7826 106.008C104.317 99.4045 111.683 90.2127 115.936 79.5445C120.635 67.7568 121.278 54.803 117.768 42.6291C114.259 30.4552 106.787 19.7186 96.4741 12.0322C86.1615 4.34575 73.5655 0.124555 60.5782 0.00271364C47.5909 -0.119128 34.9136 3.86496 24.4508 11.3565C13.988 18.848 6.30465 29.4424 2.55495 41.5482C-1.19474 53.654 -0.808301 66.6175 3.65623 78.4912C7.69654 89.2366 14.8793 98.5645 24.2802 105.345C25.9321 106.537 28.2158 106.044 29.3464 104.35C30.5168 102.596 30.0034 100.232 28.3087 98.9776C20.3641 93.0953 14.2893 85.1054 10.8397 75.9312C6.94441 65.5713 6.60724 54.2606 9.87887 43.6983C13.1505 33.1359 19.8543 23.8922 28.9831 17.3558C38.112 10.8194 49.173 7.34329 60.5045 7.4496C71.836 7.55591 82.8261 11.2389 91.8238 17.9454C100.822 24.6518 107.341 34.0196 110.403 44.6414C113.465 55.2631 112.904 66.5654 108.804 76.8503C105.173 85.9597 98.9397 93.8353 90.8781 99.5677C89.161 100.789 88.6026 103.14 89.7377 104.915Z" fill="url(#paint2_linear_26_24871)"/>
<defs>
<linearGradient id="paint0_linear_26_24871" x1="62.3425" y1="62.9943" x2="62.3425" y2="53.9893" gradientUnits="userSpaceOnUse">
<stop stop-color="#020820" stop-opacity="0.37"/>
<stop offset="1" stop-color="white"/>
</linearGradient>
<linearGradient id="paint1_linear_26_24871" x1="59.9407" y1="59.2068" x2="59.9407" y2="42.0406" gradientUnits="userSpaceOnUse">
<stop stop-color="#020820" stop-opacity="0.37"/>
<stop offset="1" stop-color="white"/>
</linearGradient>
<linearGradient id="paint2_linear_26_24871" x1="60" y1="96.0881" x2="60" y2="-6.5" gradientUnits="userSpaceOnUse">
<stop stop-color="#D81010" stop-opacity="0.52"/>
<stop offset="0.447172" stop-color="#020820" stop-opacity="0.37"/>
<stop offset="1" stop-color="white"/>
</linearGradient>
</defs>
</svg>
