<svg width="120" height="108" viewBox="0 0 120 108" fill="none" xmlns="http://www.w3.org/2000/svg">
<path d="M62.0001 64.6667H64.6667V66.6667C64.6667 66.8435 64.5965 67.0131 64.4715 67.1381C64.3464 67.2631 64.1769 67.3333 64.0001 67.3333H62.6667C62.4899 67.3333 62.3203 67.2631 62.1953 67.1381C62.0703 67.0131 62.0001 66.8435 62.0001 66.6667V64.6667ZM64.0001 68.6667V70H62.6667V68.6667H64.0001ZM56.6401 66.2667C58.0007 66.0727 59.7261 65.9727 60.6667 65.9293V66.6667C60.6676 66.9464 60.7274 67.2227 60.8423 67.4777C60.9572 67.7328 61.1245 67.9607 61.3334 68.1467V70H52.7154C52.7543 69.7583 52.8138 69.5203 52.8934 69.2887C53.0388 69.3137 53.1859 69.3286 53.3334 69.3333C54.169 69.3309 54.973 69.014 55.5857 68.4459C56.1984 67.8777 56.5748 67.0997 56.6401 66.2667ZM46.1467 35.87C46.1768 35.7188 46.2583 35.5827 46.3774 35.4849C46.4966 35.387 46.6459 35.3335 46.8001 35.3333H48.0001C48.1769 35.3333 48.3464 35.4036 48.4715 35.5286C48.5965 35.6536 48.6667 35.8232 48.6667 36V40C48.6667 40.1768 48.5965 40.3464 48.4715 40.4714C48.3464 40.5964 48.1769 40.6667 48.0001 40.6667H46.0001C45.9012 40.6667 45.8035 40.6447 45.7142 40.6024C45.6249 40.56 45.5461 40.4983 45.4836 40.4217C45.421 40.3451 45.3763 40.2556 45.3526 40.1596C45.329 40.0636 45.3269 39.9635 45.3467 39.8667L46.1467 35.87ZM48.0001 42V43.3387C47.7488 43.3344 47.4983 43.366 47.2561 43.4327L46.6667 43.6V42H48.0001ZM50.9134 63.7213L45.3961 46.75C45.3423 46.5834 45.3229 46.4076 45.3389 46.2332C45.3549 46.0589 45.406 45.8896 45.4892 45.7355C45.5723 45.5814 45.6858 45.4457 45.8227 45.3366C45.9597 45.2275 46.1173 45.1473 46.2861 45.1007L47.6194 44.7153C47.8802 44.642 48.1573 44.651 48.4129 44.7409C48.6684 44.8309 48.89 44.9975 49.0474 45.218C50.8892 47.8455 52.3499 50.7205 53.3861 53.7573C54.3334 56.7474 54.7999 59.869 54.7681 63.0053C54.1341 62.6921 53.4158 62.5926 52.7206 62.7217C52.0254 62.8507 51.3907 63.2015 50.9114 63.7213H50.9134ZM51.3334 66C51.3334 65.6044 51.4507 65.2178 51.6704 64.8889C51.8902 64.56 52.2026 64.3036 52.568 64.1523C52.9335 64.0009 53.3356 63.9613 53.7236 64.0384C54.1115 64.1156 54.4679 64.3061 54.7476 64.5858C55.0273 64.8655 55.2178 65.2219 55.295 65.6098C55.3721 65.9978 55.3325 66.3999 55.1811 66.7654C55.0298 67.1308 54.7734 67.4432 54.4445 67.6629C54.1156 67.8827 53.729 68 53.3334 68C52.803 68 52.2942 67.7893 51.9192 67.4142C51.5441 67.0392 51.3334 66.5304 51.3334 66ZM74.0001 72C74.0001 72.1768 73.9298 72.3464 73.8048 72.4714C73.6798 72.5964 73.5102 72.6667 73.3334 72.6667H53.3334C53.1566 72.6667 52.987 72.5964 52.862 72.4714C52.737 72.3464 52.6667 72.1768 52.6667 72V71.3333H74.0001V72ZM74.3334 70H65.3334V68.1467C65.5423 67.9607 65.7096 67.7328 65.8245 67.4777C65.9394 67.2227 65.9992 66.9464 66.0001 66.6667V65.49L70.5921 65.084C71.5508 64.9755 72.5137 65.2484 73.2729 65.8439C74.032 66.4395 74.5265 67.3097 74.6494 68.2667C74.6614 68.3933 74.6667 68.526 74.6667 68.6667C74.6777 69.133 74.5626 69.5937 74.3334 70Z" fill="white"/>
<path d="M62.0001 64.6667H64.6667V66.6667C64.6667 66.8435 64.5965 67.0131 64.4715 67.1381C64.3464 67.2631 64.1769 67.3333 64.0001 67.3333H62.6667C62.4899 67.3333 62.3203 67.2631 62.1953 67.1381C62.0703 67.0131 62.0001 66.8435 62.0001 66.6667V64.6667ZM64.0001 68.6667V70H62.6667V68.6667H64.0001ZM56.6401 66.2667C58.0007 66.0727 59.7261 65.9727 60.6667 65.9293V66.6667C60.6676 66.9464 60.7274 67.2227 60.8423 67.4777C60.9572 67.7328 61.1245 67.9607 61.3334 68.1467V70H52.7154C52.7543 69.7583 52.8138 69.5203 52.8934 69.2887C53.0388 69.3137 53.1859 69.3286 53.3334 69.3333C54.169 69.3309 54.973 69.014 55.5857 68.4459C56.1984 67.8777 56.5748 67.0997 56.6401 66.2667ZM46.1467 35.87C46.1768 35.7188 46.2583 35.5827 46.3774 35.4849C46.4966 35.387 46.6459 35.3335 46.8001 35.3333H48.0001C48.1769 35.3333 48.3464 35.4036 48.4715 35.5286C48.5965 35.6536 48.6667 35.8232 48.6667 36V40C48.6667 40.1768 48.5965 40.3464 48.4715 40.4714C48.3464 40.5964 48.1769 40.6667 48.0001 40.6667H46.0001C45.9012 40.6667 45.8035 40.6447 45.7142 40.6024C45.6249 40.56 45.5461 40.4983 45.4836 40.4217C45.421 40.3451 45.3763 40.2556 45.3526 40.1596C45.329 40.0636 45.3269 39.9635 45.3467 39.8667L46.1467 35.87ZM48.0001 42V43.3387C47.7488 43.3344 47.4983 43.366 47.2561 43.4327L46.6667 43.6V42H48.0001ZM50.9134 63.7213L45.3961 46.75C45.3423 46.5834 45.3229 46.4076 45.3389 46.2332C45.3549 46.0589 45.406 45.8896 45.4892 45.7355C45.5723 45.5814 45.6858 45.4457 45.8227 45.3366C45.9597 45.2275 46.1173 45.1473 46.2861 45.1007L47.6194 44.7153C47.8802 44.642 48.1573 44.651 48.4129 44.7409C48.6684 44.8309 48.89 44.9975 49.0474 45.218C50.8892 47.8455 52.3499 50.7205 53.3861 53.7573C54.3334 56.7474 54.7999 59.869 54.7681 63.0053C54.1341 62.6921 53.4158 62.5926 52.7206 62.7217C52.0254 62.8507 51.3907 63.2015 50.9114 63.7213H50.9134ZM51.3334 66C51.3334 65.6044 51.4507 65.2178 51.6704 64.8889C51.8902 64.56 52.2026 64.3036 52.568 64.1523C52.9335 64.0009 53.3356 63.9613 53.7236 64.0384C54.1115 64.1156 54.4679 64.3061 54.7476 64.5858C55.0273 64.8655 55.2178 65.2219 55.295 65.6098C55.3721 65.9978 55.3325 66.3999 55.1811 66.7654C55.0298 67.1308 54.7734 67.4432 54.4445 67.6629C54.1156 67.8827 53.729 68 53.3334 68C52.803 68 52.2942 67.7893 51.9192 67.4142C51.5441 67.0392 51.3334 66.5304 51.3334 66ZM74.0001 72C74.0001 72.1768 73.9298 72.3464 73.8048 72.4714C73.6798 72.5964 73.5102 72.6667 73.3334 72.6667H53.3334C53.1566 72.6667 52.987 72.5964 52.862 72.4714C52.737 72.3464 52.6667 72.1768 52.6667 72V71.3333H74.0001V72ZM74.3334 70H65.3334V68.1467C65.5423 67.9607 65.7096 67.7328 65.8245 67.4777C65.9394 67.2227 65.9992 66.9464 66.0001 66.6667V65.49L70.5921 65.084C71.5508 64.9755 72.5137 65.2484 73.2729 65.8439C74.032 66.4395 74.5265 67.3097 74.6494 68.2667C74.6614 68.3933 74.6667 68.526 74.6667 68.6667C74.6777 69.133 74.5626 69.5937 74.3334 70Z" fill="url(#paint0_linear_26_24881)"/>
<path d="M89.7377 104.915C90.8348 106.631 93.1084 107.167 94.7826 106.008C104.317 99.4045 111.683 90.2127 115.936 79.5445C120.635 67.7568 121.278 54.803 117.768 42.6291C114.259 30.4552 106.787 19.7186 96.4741 12.0322C86.1615 4.34575 73.5655 0.124555 60.5782 0.00271364C47.5909 -0.119128 34.9136 3.86496 24.4508 11.3565C13.988 18.848 6.30465 29.4424 2.55495 41.5482C-1.19474 53.654 -0.808301 66.6175 3.65623 78.4912C7.69653 89.2366 14.8793 98.5645 24.2802 105.345C25.9321 106.537 28.2158 106.044 29.3464 104.35C30.5168 102.596 30.0033 100.232 28.3087 98.9776C20.3641 93.0953 14.2892 85.1054 10.8397 75.9312C6.94441 65.5713 6.60724 54.2606 9.87887 43.6983C13.1505 33.1359 19.8543 23.8922 28.9831 17.3558C38.112 10.8194 49.173 7.34329 60.5045 7.4496C71.8359 7.5559 82.826 11.2389 91.8238 17.9454C100.822 24.6518 107.341 34.0196 110.403 44.6414C113.465 55.2631 112.904 66.5654 108.804 76.8503C105.173 85.9597 98.9397 93.8353 90.8781 99.5677C89.1609 100.789 88.6026 103.14 89.7377 104.915Z" fill="url(#paint1_linear_26_24881)"/>
<path d="M89.7377 104.915C90.8348 106.631 93.1084 107.167 94.7826 106.008C104.317 99.4045 111.683 90.2127 115.936 79.5445C120.635 67.7568 121.278 54.803 117.768 42.6291C114.259 30.4552 106.787 19.7186 96.4741 12.0322C86.1615 4.34575 73.5655 0.124555 60.5782 0.00271364C47.5909 -0.119128 34.9136 3.86496 24.4508 11.3565C13.988 18.848 6.30465 29.4424 2.55495 41.5482C-1.19474 53.654 -0.808301 66.6175 3.65623 78.4912C7.69653 89.2366 14.8793 98.5645 24.2802 105.345C25.9321 106.537 28.2158 106.044 29.3464 104.35C30.5168 102.596 30.0033 100.232 28.3087 98.9776C20.3641 93.0953 14.2892 85.1054 10.8397 75.9312C6.94441 65.5713 6.60724 54.2606 9.87887 43.6983C13.1505 33.1359 19.8543 23.8922 28.9831 17.3558C38.112 10.8194 49.173 7.34329 60.5045 7.4496C71.8359 7.5559 82.826 11.2389 91.8238 17.9454C100.822 24.6518 107.341 34.0196 110.403 44.6414C113.465 55.2631 112.904 66.5654 108.804 76.8503C105.173 85.9597 98.9397 93.8353 90.8781 99.5677C89.1609 100.789 88.6026 103.14 89.7377 104.915Z" fill="url(#paint2_linear_26_24881)"/>
<defs>
<linearGradient id="paint0_linear_26_24881" x1="60.0003" y1="68.549" x2="60.0004" y2="33.0864" gradientUnits="userSpaceOnUse">
<stop stop-color="#020820" stop-opacity="0.37"/>
<stop offset="1" stop-color="white"/>
</linearGradient>
<linearGradient id="paint1_linear_26_24881" x1="60" y1="96.0881" x2="60" y2="-23.949" gradientUnits="userSpaceOnUse">
<stop stop-color="#020820"/>
<stop offset="1" stop-color="white" stop-opacity="0.2"/>
</linearGradient>
<linearGradient id="paint2_linear_26_24881" x1="60" y1="96.0881" x2="60" y2="-6.5" gradientUnits="userSpaceOnUse">
<stop stop-color="#D81010" stop-opacity="0.52"/>
<stop offset="0.447172" stop-color="#020820" stop-opacity="0.37"/>
<stop offset="1" stop-color="white"/>
</linearGradient>
</defs>
</svg>
