<svg width="120" height="108" viewBox="0 0 120 108" fill="none" xmlns="http://www.w3.org/2000/svg">
<g clip-path="url(#clip0_26_24876)">
<path d="M60.9858 68.9786C61.7311 67.3638 62.2951 65.4571 62.6562 63.375H49.8437C50.2052 65.4571 50.7691 67.3638 51.5145 68.9786C52.8037 71.7726 54.5298 73.375 56.25 73.375C57.9702 73.375 59.6962 71.7726 60.9858 68.9786ZM49.375 57.75C49.3733 59.2128 49.4664 60.6742 49.6537 62.125H62.8462C63.0336 60.6742 63.1267 59.2128 63.125 57.75C63.1267 56.2872 63.0336 54.8258 62.8462 53.375H49.6537C49.4664 54.8258 49.3733 56.2872 49.375 57.75ZM64.1058 53.375C64.2865 54.8263 64.3764 56.2875 64.375 57.75C64.3764 59.2125 64.2865 60.6737 64.1058 62.125H71.9035C72.6988 59.2626 72.6988 56.2375 71.9035 53.375H64.1058ZM50.3792 69.5024C49.5642 67.7368 48.9547 65.649 48.5762 63.375H41.0004C42.0008 66.0807 43.7026 68.4717 45.9313 70.3031C48.16 72.1346 50.8356 73.3406 53.6838 73.7976C52.4335 72.9605 51.3033 71.5047 50.3792 69.5024ZM62.1208 69.5024C61.1967 71.5047 60.0661 72.9605 58.8161 73.7976C61.6644 73.3407 64.3401 72.1347 66.5689 70.3032C68.7977 68.4718 70.4995 66.0807 71.5 63.375H63.9237C63.5453 65.649 62.9358 67.7367 62.1208 69.5024ZM48.125 57.75C48.1236 56.2875 48.2135 54.8263 48.3942 53.375H40.5965C39.8012 56.2375 39.8012 59.2626 40.5965 62.125H48.3942C48.2135 60.6737 48.1236 59.2125 48.125 57.75ZM50.3792 45.9976C50.459 45.8255 50.5417 45.6547 50.6274 45.4854C50.092 44.7308 49.6483 43.9152 49.3057 43.0557C45.4595 44.8787 42.4787 48.1336 41.0004 52.125H48.5762C48.9547 49.851 49.5642 47.7633 50.3792 45.9976ZM71.5 52.125C70.0216 48.1335 67.0407 44.8785 63.1943 43.0556C62.8517 43.915 62.408 44.7307 61.8726 45.4853C61.9583 45.6545 62.041 45.8253 62.1208 45.9974C62.9358 47.7631 63.5453 49.8509 63.9237 52.1249L71.5 52.125ZM60.6186 47.0672C59.7456 48.0465 58.7855 48.9445 57.75 49.75C57.3173 50.0746 56.7909 50.25 56.25 50.25C55.7091 50.25 55.1827 50.0746 54.75 49.75C53.7145 48.9445 52.7544 48.0466 51.8815 47.0673C51.7427 46.911 51.6086 46.7551 51.4792 46.5995C50.7514 48.1976 50.1992 50.0761 49.8437 52.125H62.6562C62.3005 50.0761 61.7484 48.1976 61.0206 46.5994C60.8911 46.7552 60.7571 46.9111 60.6186 47.0672Z" fill="white"/>
<path d="M60.9858 68.9786C61.7311 67.3638 62.2951 65.4571 62.6562 63.375H49.8437C50.2052 65.4571 50.7691 67.3638 51.5145 68.9786C52.8037 71.7726 54.5298 73.375 56.25 73.375C57.9702 73.375 59.6962 71.7726 60.9858 68.9786ZM49.375 57.75C49.3733 59.2128 49.4664 60.6742 49.6537 62.125H62.8462C63.0336 60.6742 63.1267 59.2128 63.125 57.75C63.1267 56.2872 63.0336 54.8258 62.8462 53.375H49.6537C49.4664 54.8258 49.3733 56.2872 49.375 57.75ZM64.1058 53.375C64.2865 54.8263 64.3764 56.2875 64.375 57.75C64.3764 59.2125 64.2865 60.6737 64.1058 62.125H71.9035C72.6988 59.2626 72.6988 56.2375 71.9035 53.375H64.1058ZM50.3792 69.5024C49.5642 67.7368 48.9547 65.649 48.5762 63.375H41.0004C42.0008 66.0807 43.7026 68.4717 45.9313 70.3031C48.16 72.1346 50.8356 73.3406 53.6838 73.7976C52.4335 72.9605 51.3033 71.5047 50.3792 69.5024ZM62.1208 69.5024C61.1967 71.5047 60.0661 72.9605 58.8161 73.7976C61.6644 73.3407 64.3401 72.1347 66.5689 70.3032C68.7977 68.4718 70.4995 66.0807 71.5 63.375H63.9237C63.5453 65.649 62.9358 67.7367 62.1208 69.5024ZM48.125 57.75C48.1236 56.2875 48.2135 54.8263 48.3942 53.375H40.5965C39.8012 56.2375 39.8012 59.2626 40.5965 62.125H48.3942C48.2135 60.6737 48.1236 59.2125 48.125 57.75ZM50.3792 45.9976C50.459 45.8255 50.5417 45.6547 50.6274 45.4854C50.092 44.7308 49.6483 43.9152 49.3057 43.0557C45.4595 44.8787 42.4787 48.1336 41.0004 52.125H48.5762C48.9547 49.851 49.5642 47.7633 50.3792 45.9976ZM71.5 52.125C70.0216 48.1335 67.0407 44.8785 63.1943 43.0556C62.8517 43.915 62.408 44.7307 61.8726 45.4853C61.9583 45.6545 62.041 45.8253 62.1208 45.9974C62.9358 47.7631 63.5453 49.8509 63.9237 52.1249L71.5 52.125ZM60.6186 47.0672C59.7456 48.0465 58.7855 48.9445 57.75 49.75C57.3173 50.0746 56.7909 50.25 56.25 50.25C55.7091 50.25 55.1827 50.0746 54.75 49.75C53.7145 48.9445 52.7544 48.0466 51.8815 47.0673C51.7427 46.911 51.6086 46.7551 51.4792 46.5995C50.7514 48.1976 50.1992 50.0761 49.8437 52.125H62.6562C62.3005 50.0761 61.7484 48.1976 61.0206 46.5994C60.8911 46.7552 60.7571 46.9111 60.6186 47.0672Z" fill="url(#paint0_linear_26_24876)"/>
<path d="M55.5 48.75C55.7164 48.9123 55.9795 49 56.25 49C56.5205 49 56.7836 48.9123 57 48.75C57.9691 47.9953 58.8675 47.1541 59.6843 46.2367C61.5527 44.1348 62.5 42.1205 62.5 40.25C62.5 38.5924 61.8415 37.0027 60.6694 35.8306C59.4973 34.6585 57.9076 34 56.25 34C54.5924 34 53.0027 34.6585 51.8306 35.8306C50.6585 37.0027 50 38.5924 50 40.25C50 42.1205 50.9473 44.1348 52.8157 46.2367C53.6325 47.1541 54.5309 47.9953 55.5 48.75ZM56.25 36.5C56.9917 36.5 57.7167 36.7199 58.3334 37.132C58.9501 37.544 59.4307 38.1297 59.7145 38.8149C59.9984 39.5002 60.0726 40.2542 59.9279 40.9816C59.7833 41.709 59.4261 42.3772 58.9017 42.9017C58.3772 43.4261 57.709 43.7832 56.9816 43.9279C56.2542 44.0726 55.5002 43.9984 54.8149 43.7145C54.1297 43.4307 53.544 42.9501 53.132 42.3334C52.7199 41.7167 52.5 40.9917 52.5 40.25C52.5 39.2554 52.8951 38.3016 53.5983 37.5983C54.3016 36.8951 55.2554 36.5 56.25 36.5ZM68.75 39H67.5V41.5H68.75C69.7446 41.5 70.6984 41.8951 71.4017 42.5983C72.1049 43.3016 72.5 44.2554 72.5 45.25V46.5H75V45.25C75 43.5924 74.3415 42.0027 73.1694 40.8306C71.9973 39.6585 70.4076 39 68.75 39Z" fill="white"/>
<path d="M55.5 48.75C55.7164 48.9123 55.9795 49 56.25 49C56.5205 49 56.7836 48.9123 57 48.75C57.9691 47.9953 58.8675 47.1541 59.6843 46.2367C61.5527 44.1348 62.5 42.1205 62.5 40.25C62.5 38.5924 61.8415 37.0027 60.6694 35.8306C59.4973 34.6585 57.9076 34 56.25 34C54.5924 34 53.0027 34.6585 51.8306 35.8306C50.6585 37.0027 50 38.5924 50 40.25C50 42.1205 50.9473 44.1348 52.8157 46.2367C53.6325 47.1541 54.5309 47.9953 55.5 48.75ZM56.25 36.5C56.9917 36.5 57.7167 36.7199 58.3334 37.132C58.9501 37.544 59.4307 38.1297 59.7145 38.8149C59.9984 39.5002 60.0726 40.2542 59.9279 40.9816C59.7833 41.709 59.4261 42.3772 58.9017 42.9017C58.3772 43.4261 57.709 43.7832 56.9816 43.9279C56.2542 44.0726 55.5002 43.9984 54.8149 43.7145C54.1297 43.4307 53.544 42.9501 53.132 42.3334C52.7199 41.7167 52.5 40.9917 52.5 40.25C52.5 39.2554 52.8951 38.3016 53.5983 37.5983C54.3016 36.8951 55.2554 36.5 56.25 36.5ZM68.75 39H67.5V41.5H68.75C69.7446 41.5 70.6984 41.8951 71.4017 42.5983C72.1049 43.3016 72.5 44.2554 72.5 45.25V46.5H75V45.25C75 43.5924 74.3415 42.0027 73.1694 40.8306C71.9973 39.6585 70.4076 39 68.75 39Z" fill="url(#paint1_linear_26_24876)"/>
<path d="M76.7049 37.295C75.6627 36.2471 74.423 35.4163 73.0575 34.8507C71.692 34.2851 70.228 33.996 68.75 34H67.5V36.5H68.75C71.0706 36.5 73.2962 37.4219 74.9372 39.0628C76.5781 40.7038 77.5 42.9294 77.5 45.25V46.5H80V45.25C80.004 43.772 79.7149 42.3079 79.1493 40.9425C78.5837 39.577 77.7529 38.3373 76.7049 37.295Z" fill="white"/>
<path d="M76.7049 37.295C75.6627 36.2471 74.423 35.4163 73.0575 34.8507C71.692 34.2851 70.228 33.996 68.75 34H67.5V36.5H68.75C71.0706 36.5 73.2962 37.4219 74.9372 39.0628C76.5781 40.7038 77.5 42.9294 77.5 45.25V46.5H80V45.25C80.004 43.772 79.7149 42.3079 79.1493 40.9425C78.5837 39.577 77.7529 38.3373 76.7049 37.295Z" fill="url(#paint2_linear_26_24876)"/>
</g>
<path d="M89.7377 104.915C90.8349 106.631 93.1084 107.167 94.7826 106.008C104.317 99.4045 111.683 90.2127 115.936 79.5445C120.635 67.7568 121.278 54.803 117.768 42.6291C114.259 30.4552 106.787 19.7186 96.4741 12.0322C86.1615 4.34575 73.5655 0.124555 60.5782 0.00271364C47.5909 -0.119128 34.9136 3.86496 24.4508 11.3565C13.988 18.848 6.30465 29.4424 2.55495 41.5482C-1.19474 53.654 -0.808301 66.6175 3.65623 78.4912C7.69654 89.2366 14.8793 98.5645 24.2802 105.345C25.9321 106.537 28.2158 106.044 29.3464 104.35C30.5168 102.596 30.0034 100.232 28.3087 98.9776C20.3641 93.0953 14.2893 85.1054 10.8397 75.9312C6.94441 65.5713 6.60724 54.2606 9.87887 43.6983C13.1505 33.1359 19.8543 23.8922 28.9831 17.3558C38.112 10.8194 49.173 7.34329 60.5045 7.4496C71.836 7.55591 82.8261 11.2389 91.8238 17.9454C100.822 24.6518 107.341 34.0196 110.403 44.6414C113.465 55.2631 112.904 66.5654 108.804 76.8503C105.173 85.9597 98.9397 93.8353 90.8781 99.5677C89.161 100.789 88.6026 103.14 89.7377 104.915Z" fill="url(#paint3_linear_26_24876)"/>
<defs>
<linearGradient id="paint0_linear_26_24876" x1="56.25" y1="70.4069" x2="56.25" y2="41.2054" gradientUnits="userSpaceOnUse">
<stop stop-color="#020820" stop-opacity="0.37"/>
<stop offset="1" stop-color="white"/>
</linearGradient>
<linearGradient id="paint1_linear_26_24876" x1="62.5" y1="47.3456" x2="62.5" y2="33.0972" gradientUnits="userSpaceOnUse">
<stop stop-color="#020820" stop-opacity="0.37"/>
<stop offset="1" stop-color="white"/>
</linearGradient>
<linearGradient id="paint2_linear_26_24876" x1="73.75" y1="45.1213" x2="73.75" y2="33.2477" gradientUnits="userSpaceOnUse">
<stop stop-color="#020820" stop-opacity="0.37"/>
<stop offset="1" stop-color="white"/>
</linearGradient>
<linearGradient id="paint3_linear_26_24876" x1="60" y1="108" x2="60" y2="-59.5" gradientUnits="userSpaceOnUse">
<stop stop-color="#020820"/>
<stop offset="1" stop-color="white"/>
</linearGradient>
<clipPath id="clip0_26_24876">
<rect width="40" height="40" fill="white" transform="translate(40 34)"/>
</clipPath>
</defs>
</svg>
