<svg width="144" height="69" viewBox="0 0 144 69" fill="none" xmlns="http://www.w3.org/2000/svg">
<rect width="144" height="68" transform="translate(0 1)" fill="#020820"/>
<path d="M9.51621 58V31.4668H20.8346C25.8814 31.4668 28.4049 33.5264 28.4049 37.6455C28.4049 40.6637 26.7597 42.8223 23.4693 44.1211C26.9824 44.7767 28.7389 46.7868 28.7389 50.1514C28.7389 55.3838 25.9742 58 20.4449 58H9.51621ZM20.2408 55.2168C23.4075 55.2168 24.9908 53.6087 24.9908 50.3926C24.9908 47.263 22.8694 45.6982 18.6266 45.6982H17.1422V43.4531C22.2138 42.7728 24.7496 40.9421 24.7496 37.9609C24.7496 35.487 23.3395 34.25 20.5191 34.25H12.9488V55.2168H20.2408ZM34.0351 52.1182C34.0351 48.1227 36.6699 46.125 41.9394 46.125C43.6341 46.125 45.3287 46.2487 47.0234 46.4961V44.6592C47.0234 42.4202 45.2731 41.3008 41.7724 41.3008C39.7685 41.3008 37.7151 41.61 35.6123 42.2285V39.4453C37.7151 38.8268 39.7685 38.5176 41.7724 38.5176C47.5615 38.5176 50.456 40.5339 50.456 44.5664V58H48.5263L47.3388 56.0703C45.3968 57.3568 43.2815 58 40.9931 58C36.3545 58 34.0351 56.0394 34.0351 52.1182ZM41.9394 48.9082C38.9583 48.9082 37.4677 49.9596 37.4677 52.0625C37.4677 54.1654 38.6429 55.2168 40.9931 55.2168C43.3681 55.2168 45.3782 54.5859 47.0234 53.3242V49.2793C45.3287 49.0319 43.6341 48.9082 41.9394 48.9082ZM54.8616 38.5176H58.5911L64.1019 53.7324L69.7982 38.5176H73.4349L65.345 58.5752C63.9101 62.113 61.7578 64.321 58.888 65.1992L57.5706 62.7686C59.7477 61.8161 61.331 60.2637 62.3206 58.1113L54.8616 38.5176ZM98.2136 57.0723C95.9251 57.8145 93.4512 58.1855 90.7917 58.1855C81.5143 58.1855 76.8757 53.5778 76.8757 44.3623C76.8757 35.6416 81.5143 31.2812 90.7917 31.2812C93.4512 31.2812 95.9251 31.6523 98.2136 32.3945V35.3633C95.9251 34.4974 93.5749 34.0645 91.1628 34.0645C83.9264 34.0645 80.3083 37.4971 80.3083 44.3623C80.3083 51.7223 83.9264 55.4023 91.1628 55.4023C93.5749 55.4023 95.9251 54.9694 98.2136 54.1035V57.0723ZM103.732 52.1182C103.732 48.1227 106.367 46.125 111.637 46.125C113.331 46.125 115.026 46.2487 116.721 46.4961V44.6592C116.721 42.4202 114.97 41.3008 111.47 41.3008C109.466 41.3008 107.412 41.61 105.31 42.2285V39.4453C107.412 38.8268 109.466 38.5176 111.47 38.5176C117.259 38.5176 120.153 40.5339 120.153 44.5664V58H118.224L117.036 56.0703C115.094 57.3568 112.979 58 110.69 58C106.052 58 103.732 56.0394 103.732 52.1182ZM111.637 48.9082C108.656 48.9082 107.165 49.9596 107.165 52.0625C107.165 54.1654 108.34 55.2168 110.69 55.2168C113.065 55.2168 115.076 54.5859 116.721 53.3242V49.2793C115.026 49.0319 113.331 48.9082 111.637 48.9082ZM126.878 58V38.5176H129.198L129.81 41.0039C131.517 39.3464 133.57 38.5176 135.97 38.5176V41.375C133.645 41.375 131.758 42.1976 130.311 43.8428V58H126.878Z" fill="white"/>
<path d="M9.51621 58V31.4668H20.8346C25.8814 31.4668 28.4049 33.5264 28.4049 37.6455C28.4049 40.6637 26.7597 42.8223 23.4693 44.1211C26.9824 44.7767 28.7389 46.7868 28.7389 50.1514C28.7389 55.3838 25.9742 58 20.4449 58H9.51621ZM20.2408 55.2168C23.4075 55.2168 24.9908 53.6087 24.9908 50.3926C24.9908 47.263 22.8694 45.6982 18.6266 45.6982H17.1422V43.4531C22.2138 42.7728 24.7496 40.9421 24.7496 37.9609C24.7496 35.487 23.3395 34.25 20.5191 34.25H12.9488V55.2168H20.2408ZM34.0351 52.1182C34.0351 48.1227 36.6699 46.125 41.9394 46.125C43.6341 46.125 45.3287 46.2487 47.0234 46.4961V44.6592C47.0234 42.4202 45.2731 41.3008 41.7724 41.3008C39.7685 41.3008 37.7151 41.61 35.6123 42.2285V39.4453C37.7151 38.8268 39.7685 38.5176 41.7724 38.5176C47.5615 38.5176 50.456 40.5339 50.456 44.5664V58H48.5263L47.3388 56.0703C45.3968 57.3568 43.2815 58 40.9931 58C36.3545 58 34.0351 56.0394 34.0351 52.1182ZM41.9394 48.9082C38.9583 48.9082 37.4677 49.9596 37.4677 52.0625C37.4677 54.1654 38.6429 55.2168 40.9931 55.2168C43.3681 55.2168 45.3782 54.5859 47.0234 53.3242V49.2793C45.3287 49.0319 43.6341 48.9082 41.9394 48.9082ZM54.8616 38.5176H58.5911L64.1019 53.7324L69.7982 38.5176H73.4349L65.345 58.5752C63.9101 62.113 61.7578 64.321 58.888 65.1992L57.5706 62.7686C59.7477 61.8161 61.331 60.2637 62.3206 58.1113L54.8616 38.5176ZM98.2136 57.0723C95.9251 57.8145 93.4512 58.1855 90.7917 58.1855C81.5143 58.1855 76.8757 53.5778 76.8757 44.3623C76.8757 35.6416 81.5143 31.2812 90.7917 31.2812C93.4512 31.2812 95.9251 31.6523 98.2136 32.3945V35.3633C95.9251 34.4974 93.5749 34.0645 91.1628 34.0645C83.9264 34.0645 80.3083 37.4971 80.3083 44.3623C80.3083 51.7223 83.9264 55.4023 91.1628 55.4023C93.5749 55.4023 95.9251 54.9694 98.2136 54.1035V57.0723ZM103.732 52.1182C103.732 48.1227 106.367 46.125 111.637 46.125C113.331 46.125 115.026 46.2487 116.721 46.4961V44.6592C116.721 42.4202 114.97 41.3008 111.47 41.3008C109.466 41.3008 107.412 41.61 105.31 42.2285V39.4453C107.412 38.8268 109.466 38.5176 111.47 38.5176C117.259 38.5176 120.153 40.5339 120.153 44.5664V58H118.224L117.036 56.0703C115.094 57.3568 112.979 58 110.69 58C106.052 58 103.732 56.0394 103.732 52.1182ZM111.637 48.9082C108.656 48.9082 107.165 49.9596 107.165 52.0625C107.165 54.1654 108.34 55.2168 110.69 55.2168C113.065 55.2168 115.076 54.5859 116.721 53.3242V49.2793C115.026 49.0319 113.331 48.9082 111.637 48.9082ZM126.878 58V38.5176H129.198L129.81 41.0039C131.517 39.3464 133.57 38.5176 135.97 38.5176V41.375C133.645 41.375 131.758 42.1976 130.311 43.8428V58H126.878Z" fill="url(#paint0_linear_26_24908)"/>
<path d="M136.06 20.8554C138.856 23.6572 140.26 26.9422 132.718 25.0042C127.761 23.6442 122.987 21.6902 118.499 19.1845C120.272 18.6164 122.137 18.3945 123.994 18.5309L124.028 18.5366L125.068 18.6503C124.813 18.5366 124.523 18.4229 124.199 18.3093C124.185 18.3081 124.171 18.3043 124.159 18.2979C117.163 15.9052 95.7995 14.348 87.5758 15.8882C81.1139 11.4723 67.3603 2.90757 51.3619 3.51C49.3749 3.58257 47.3957 3.7991 45.4399 4.15789H45.4286C32.8458 6.45394 26.2134 13.8138 26.2134 13.8138C19.8481 13.8138 11.8631 10.9778 9.36816 7.77246C11.9484 9.77866 37.813 2.16875 49.2307 1.20259C55.6869 0.651309 59.8698 0.310305 66.4681 2.5893C71.5432 4.33975 78.0506 7.64174 88.1214 13.5921C93.3329 13.2795 98.3172 13.2511 103.012 13.4273C126.711 14.2969 142.954 20.2643 142.954 20.2643C140.679 20.6779 138.371 20.8758 136.06 20.8554Z" fill="url(#paint1_linear_26_24908)"/>
<path d="M66.1569 20.4405C50.1642 27.5219 32.1027 21.8329 17.9797 18.0649C17.9741 18.0649 17.9684 18.0592 17.9627 18.0592C10.6483 16.1155 4.3967 14.6833 0.0262604 15.7972C0.299058 15.6211 6.778 11.6371 21.8842 15.263C28.7609 16.9169 35.6832 18.332 42.4122 19.2982C50.7836 20.5087 58.8538 21.0259 66.1569 20.4405Z" fill="url(#paint2_linear_26_24908)"/>
<path d="M0.0139514 19.4714C2.72789 16.7574 10.2603 18.2112 13.9667 19.4714C7.36919 24.4381 -0.373137 22.5848 0.0139514 19.4714Z" fill="url(#paint3_linear_26_24908)"/>
<path d="M96.0647 27.4403C103.181 17.9341 117.746 20.2324 127.14 28.3831C116.132 23.2762 102.762 23.8134 96.0647 27.4403Z" fill="url(#paint4_linear_26_24908)"/>
<path d="M143.545 21.8573C145.213 28.8626 141.988 35.4972 138.764 40.501C141.338 29.6595 140.682 25.0171 139.459 22.2373C140.827 22.1815 142.191 22.0547 143.545 21.8573Z" fill="url(#paint5_linear_26_24908)"/>
<path d="M66.4681 2.5893C57.7215 0.87295 52.7032 1.96983 45.4399 4.15789H45.4286C32.8458 6.45394 26.2134 13.8138 26.2134 13.8138C19.8481 13.8138 11.8631 10.9778 9.36816 7.77246C11.9484 9.77866 37.813 2.16875 49.2307 1.20259C55.6869 0.651309 59.8698 0.310305 66.4681 2.5893Z" fill="url(#paint6_linear_26_24908)"/>
<path d="M136.06 20.8554C138.856 23.6572 140.26 26.9422 132.718 25.0042C127.761 23.6443 122.987 21.6902 118.499 19.1845C120.272 18.6164 122.138 18.3945 123.994 18.5309L124.028 18.5366L125.069 18.6503L124.199 18.3093C124.185 18.3082 124.172 18.3043 124.159 18.2979C117.353 15.7592 110.243 14.1218 103.012 13.4273C126.711 14.2969 142.954 20.2643 142.954 20.2643C140.68 20.6779 138.371 20.8758 136.06 20.8554Z" fill="url(#paint7_linear_26_24908)"/>
<path d="M66.1568 20.4405C50.1641 27.5219 32.1026 21.8329 17.9797 18.0649C27.0786 20.4917 27.1809 18.7242 42.4121 19.2982C50.7836 20.5087 58.8538 21.0259 66.1568 20.4405Z" fill="url(#paint8_linear_26_24908)"/>
<defs>
<linearGradient id="paint0_linear_26_24908" x1="199.494" y1="54.6527" x2="-11.0231" y2="105.212" gradientUnits="userSpaceOnUse">
<stop stop-color="#35A0FF"/>
<stop offset="0.0001" stop-color="#F8F6FF"/>
<stop offset="1" stop-color="#020820"/>
</linearGradient>
<linearGradient id="paint1_linear_26_24908" x1="9.36811" y1="13.1916" x2="142.954" y2="13.1916" gradientUnits="userSpaceOnUse">
<stop stop-color="white"/>
<stop offset="1" stop-color="#020820"/>
</linearGradient>
<linearGradient id="paint2_linear_26_24908" x1="0.0262035" y1="18.7789" x2="66.1569" y2="18.7789" gradientUnits="userSpaceOnUse">
<stop stop-color="white"/>
<stop offset="1" stop-color="#020820"/>
</linearGradient>
<linearGradient id="paint3_linear_26_24908" x1="-2.94838e-05" y1="20.2372" x2="13.9667" y2="20.2372" gradientUnits="userSpaceOnUse">
<stop stop-color="white"/>
<stop offset="1" stop-color="#020820"/>
</linearGradient>
<linearGradient id="paint4_linear_26_24908" x1="96.0647" y1="24.8091" x2="127.14" y2="24.8091" gradientUnits="userSpaceOnUse">
<stop stop-color="white"/>
<stop offset="1" stop-color="#020820"/>
</linearGradient>
<linearGradient id="paint5_linear_26_24908" x1="111.514" y1="18.6937" x2="143.983" y2="32.3707" gradientUnits="userSpaceOnUse">
<stop stop-color="white"/>
<stop offset="1" stop-color="#020820"/>
</linearGradient>
<linearGradient id="paint6_linear_26_24908" x1="9.36816" y1="7.305" x2="66.4681" y2="7.305" gradientUnits="userSpaceOnUse">
<stop stop-color="white"/>
<stop offset="1" stop-color="#020820"/>
</linearGradient>
<linearGradient id="paint7_linear_26_24908" x1="103.012" y1="19.5071" x2="142.954" y2="19.5071" gradientUnits="userSpaceOnUse">
<stop stop-color="white"/>
<stop offset="1" stop-color="#020820"/>
</linearGradient>
<linearGradient id="paint8_linear_26_24908" x1="64.6593" y1="23.1227" x2="24.1288" y2="18.5081" gradientUnits="userSpaceOnUse">
<stop stop-color="#35A0FF"/>
<stop offset="0.0001" stop-color="#F8F6FF"/>
<stop offset="1" stop-color="#020820"/>
</linearGradient>
</defs>
</svg>
