<svg width="46" height="41" viewBox="0 0 46 41" fill="none" xmlns="http://www.w3.org/2000/svg">
<path d="M29.389 19.9178V20.4999C29.3883 21.8643 28.9421 23.1919 28.1172 24.2846C27.2923 25.3774 26.1328 26.1769 24.8116 26.5637C23.4905 26.9506 22.0784 26.9041 20.7861 26.4313C19.4937 25.9585 18.3904 25.0846 17.6405 23.94C16.8906 22.7954 16.5345 21.4414 16.6251 20.0799C16.7158 18.7185 17.2484 17.4225 18.1435 16.3853C19.0386 15.3482 20.2483 14.6253 21.5922 14.3246C22.936 14.0239 24.342 14.1615 25.6004 14.7168" stroke="#F8F9FF" stroke-width="0.666667" stroke-linecap="round" stroke-linejoin="round"/>
<path d="M29.3891 15.4381L23.0002 21.7716L21.0835 19.8735" stroke="#F8F9FF" stroke-width="0.666667" stroke-linecap="round" stroke-linejoin="round"/>
<path d="M34.4062 39.8393C34.8241 40.4864 35.6829 40.6892 36.3184 40.254C39.9804 37.7464 42.8097 34.2529 44.4421 30.1975C46.2433 25.7225 46.4897 20.8048 45.1445 16.1833C43.7992 11.5617 40.9349 7.48577 36.9817 4.56777C33.0286 1.64978 28.2001 0.0472848 23.2216 0.00103018C18.2432 -0.0452245 13.3835 1.46726 9.37281 4.31126C5.36207 7.15526 2.41678 11.1772 0.979398 15.7729C-0.457986 20.3687 -0.309849 25.29 1.40155 29.7976C2.95241 33.8823 5.71112 37.4275 9.32192 40.0026C9.94919 40.4499 10.8118 40.2637 11.2424 39.6248C11.6937 38.955 11.4969 38.0483 10.8457 37.5705C7.80321 35.3378 5.47669 32.3063 4.15523 28.8257C2.66203 24.8928 2.53278 20.5989 3.7869 16.5892C5.04103 12.5794 7.61081 9.0702 11.1102 6.58879C14.6096 4.10738 18.8496 2.78773 23.1934 2.82809C27.5371 2.86845 31.75 4.26663 35.1991 6.8126C38.6483 9.35856 41.1474 12.9148 42.3212 16.9472C43.4949 20.9795 43.2799 25.2702 41.7083 29.1746C40.3172 32.6308 37.9297 35.6191 34.842 37.795C34.1825 38.2598 33.9685 39.1615 34.4062 39.8393Z" fill="url(#paint0_linear_384_61)"/>
<defs>
<linearGradient id="paint0_linear_384_61" x1="23" y1="36.4779" x2="23" y2="-2.46759" gradientUnits="userSpaceOnUse">
<stop stop-color="#D81010" stop-opacity="0.52"/>
<stop offset="0.447172" stop-color="#020820" stop-opacity="0.37"/>
<stop offset="1" stop-color="white"/>
</linearGradient>
</defs>
</svg>
