<svg width="500" height="237" viewBox="0 0 500 237" fill="none" xmlns="http://www.w3.org/2000/svg">
<rect width="500" height="236" transform="translate(0 0.75)" fill="#020820"/>
<path d="M33.0424 198.723V106.593H72.3423C89.8661 106.593 98.6281 113.745 98.6281 128.047C98.6281 138.527 92.9156 146.022 81.4908 150.532C93.6887 152.808 99.7877 159.788 99.7877 171.47C99.7877 189.639 90.1883 198.723 70.9893 198.723H33.0424ZM70.2806 189.059C81.276 189.059 86.7737 183.475 86.7737 172.308C86.7737 161.441 79.4076 156.008 64.6756 156.008H59.5215V148.213C77.1313 145.85 85.9361 139.494 85.9361 129.143C85.9361 120.552 81.0398 116.257 71.247 116.257H44.9612V189.059H70.2806ZM118.177 178.3C118.177 164.427 127.326 157.49 145.623 157.49C151.507 157.49 157.391 157.92 163.276 158.779V152.4C163.276 144.626 157.198 140.739 145.043 140.739C138.085 140.739 130.955 141.813 123.654 143.961V134.297C130.955 132.149 138.085 131.075 145.043 131.075C165.144 131.075 175.195 138.076 175.195 152.078V198.723H168.494L164.371 192.022C157.628 196.489 150.283 198.723 142.337 198.723C126.231 198.723 118.177 191.915 118.177 178.3ZM145.623 167.154C135.272 167.154 130.096 170.805 130.096 178.106C130.096 185.408 134.177 189.059 142.337 189.059C150.584 189.059 157.563 186.868 163.276 182.487V168.442C157.391 167.583 151.507 167.154 145.623 167.154ZM190.492 131.075H203.441L222.576 183.905L242.355 131.075H254.982L226.893 200.72C221.91 213.004 214.437 220.67 204.472 223.72L199.898 215.28C207.457 211.973 212.955 206.583 216.391 199.109L190.492 131.075ZM341.019 195.501C333.073 198.078 324.483 199.367 315.249 199.367C283.036 199.367 266.929 183.368 266.929 151.37C266.929 121.089 283.036 105.949 315.249 105.949C324.483 105.949 333.073 107.238 341.019 109.815V120.123C333.073 117.116 324.913 115.613 316.537 115.613C291.411 115.613 278.848 127.532 278.848 151.37C278.848 176.925 291.411 189.703 316.537 189.703C324.913 189.703 333.073 188.2 341.019 185.193V195.501ZM360.182 178.3C360.182 164.427 369.331 157.49 387.628 157.49C393.512 157.49 399.396 157.92 405.28 158.779V152.4C405.28 144.626 399.203 140.739 387.048 140.739C380.09 140.739 372.96 141.813 365.658 143.961V134.297C372.96 132.149 380.09 131.075 387.048 131.075C407.149 131.075 417.199 138.076 417.199 152.078V198.723H410.499L406.376 192.022C399.632 196.489 392.288 198.723 384.342 198.723C368.235 198.723 360.182 191.915 360.182 178.3ZM387.628 167.154C377.277 167.154 372.101 170.805 372.101 178.106C372.101 185.408 376.181 189.059 384.342 189.059C392.588 189.059 399.568 186.868 405.28 182.487V168.442C399.396 167.583 393.512 167.154 387.628 167.154ZM440.55 198.723V131.075H448.603L450.729 139.708C456.656 133.953 463.786 131.075 472.118 131.075V140.997C464.044 140.997 457.494 143.853 452.469 149.566V198.723H440.55Z" fill="white"/>
<path d="M33.0424 198.723V106.593H72.3423C89.8661 106.593 98.6281 113.745 98.6281 128.047C98.6281 138.527 92.9156 146.022 81.4908 150.532C93.6887 152.808 99.7877 159.788 99.7877 171.47C99.7877 189.639 90.1883 198.723 70.9893 198.723H33.0424ZM70.2806 189.059C81.276 189.059 86.7737 183.475 86.7737 172.308C86.7737 161.441 79.4076 156.008 64.6756 156.008H59.5215V148.213C77.1313 145.85 85.9361 139.494 85.9361 129.143C85.9361 120.552 81.0398 116.257 71.247 116.257H44.9612V189.059H70.2806ZM118.177 178.3C118.177 164.427 127.326 157.49 145.623 157.49C151.507 157.49 157.391 157.92 163.276 158.779V152.4C163.276 144.626 157.198 140.739 145.043 140.739C138.085 140.739 130.955 141.813 123.654 143.961V134.297C130.955 132.149 138.085 131.075 145.043 131.075C165.144 131.075 175.195 138.076 175.195 152.078V198.723H168.494L164.371 192.022C157.628 196.489 150.283 198.723 142.337 198.723C126.231 198.723 118.177 191.915 118.177 178.3ZM145.623 167.154C135.272 167.154 130.096 170.805 130.096 178.106C130.096 185.408 134.177 189.059 142.337 189.059C150.584 189.059 157.563 186.868 163.276 182.487V168.442C157.391 167.583 151.507 167.154 145.623 167.154ZM190.492 131.075H203.441L222.576 183.905L242.355 131.075H254.982L226.893 200.72C221.91 213.004 214.437 220.67 204.472 223.72L199.898 215.28C207.457 211.973 212.955 206.583 216.391 199.109L190.492 131.075ZM341.019 195.501C333.073 198.078 324.483 199.367 315.249 199.367C283.036 199.367 266.929 183.368 266.929 151.37C266.929 121.089 283.036 105.949 315.249 105.949C324.483 105.949 333.073 107.238 341.019 109.815V120.123C333.073 117.116 324.913 115.613 316.537 115.613C291.411 115.613 278.848 127.532 278.848 151.37C278.848 176.925 291.411 189.703 316.537 189.703C324.913 189.703 333.073 188.2 341.019 185.193V195.501ZM360.182 178.3C360.182 164.427 369.331 157.49 387.628 157.49C393.512 157.49 399.396 157.92 405.28 158.779V152.4C405.28 144.626 399.203 140.739 387.048 140.739C380.09 140.739 372.96 141.813 365.658 143.961V134.297C372.96 132.149 380.09 131.075 387.048 131.075C407.149 131.075 417.199 138.076 417.199 152.078V198.723H410.499L406.376 192.022C399.632 196.489 392.288 198.723 384.342 198.723C368.235 198.723 360.182 191.915 360.182 178.3ZM387.628 167.154C377.277 167.154 372.101 170.805 372.101 178.106C372.101 185.408 376.181 189.059 384.342 189.059C392.588 189.059 399.568 186.868 405.28 182.487V168.442C399.396 167.583 393.512 167.154 387.628 167.154ZM440.55 198.723V131.075H448.603L450.729 139.708C456.656 133.953 463.786 131.075 472.118 131.075V140.997C464.044 140.997 457.494 143.853 452.469 149.566V198.723H440.55Z" fill="url(#paint0_linear_26_24744)"/>
<path d="M472.43 69.6606C482.139 79.3847 487.014 90.7853 460.827 84.0593C443.615 79.3396 427.037 72.5578 411.454 63.8616C417.61 61.89 424.089 61.1199 430.536 61.5933L430.654 61.613L434.266 62.0075C433.378 61.613 432.371 61.2185 431.246 60.824C431.198 60.8202 431.151 60.8068 431.108 60.7846C406.816 52.4807 332.637 47.0762 304.083 52.4215C281.646 37.0957 233.89 7.37114 178.34 9.46192C171.441 9.71378 164.569 10.4653 157.778 11.7105H157.738C114.048 19.6791 91.0191 45.2221 91.0191 45.2221C68.9175 45.2221 41.1917 35.3797 32.5287 24.2552C41.4877 31.2178 131.295 4.80698 170.94 1.45385C193.358 -0.459412 207.882 -1.6429 230.792 6.26656C248.414 12.3416 271.009 23.8015 305.977 44.4529C324.073 43.368 341.379 43.2694 357.679 43.8809C439.969 46.8987 496.367 67.6092 496.367 67.6092C488.471 69.0446 480.456 69.7315 472.43 69.6606Z" fill="url(#paint1_linear_26_24744)"/>
<path d="M229.712 68.2218C174.181 92.7983 111.468 73.0542 62.43 59.977C62.4103 59.977 62.3906 59.9573 62.3708 59.9573C36.9737 53.2115 15.2667 48.241 0.0915527 52.107C1.03877 51.4955 23.5351 37.6688 75.987 50.2529C99.8647 55.9927 123.9 60.904 147.265 64.2572C176.332 68.4585 204.354 70.2534 229.712 68.2218Z" fill="url(#paint2_linear_26_24744)"/>
<path d="M0.0484423 64.8566C9.47183 55.4377 35.626 60.483 48.4956 64.8566C25.5875 82.0939 -1.29561 75.662 0.0484423 64.8566Z" fill="url(#paint3_linear_26_24744)"/>
<path d="M333.557 92.514C358.267 59.5219 408.84 67.4984 441.458 95.7859C403.235 78.0622 356.81 79.9265 333.557 92.514Z" fill="url(#paint4_linear_26_24744)"/>
<path d="M498.421 73.1377C504.212 97.4501 493.015 120.476 481.819 137.842C490.756 100.216 488.479 84.104 484.232 74.4563C488.981 74.2627 493.717 73.8226 498.421 73.1377Z" fill="url(#paint5_linear_26_24744)"/>
<path d="M230.792 6.26656C200.422 0.309812 182.997 4.11663 157.778 11.7105H157.738C114.048 19.6791 91.0191 45.2221 91.0191 45.2221C68.9175 45.2221 41.1917 35.3797 32.5287 24.2552C41.4877 31.2178 131.295 4.80698 170.94 1.45385C193.358 -0.459412 207.882 -1.6429 230.792 6.26656Z" fill="url(#paint6_linear_26_24744)"/>
<path d="M472.431 69.6615C482.14 79.3856 487.014 90.7863 460.827 84.0603C443.615 79.3406 427.037 72.5588 411.454 63.8626C417.61 61.8909 424.089 61.1208 430.536 61.5943L430.655 61.614L434.266 62.0085L431.247 60.825C431.198 60.8212 431.151 60.8078 431.108 60.7856C407.474 51.9749 382.789 46.2921 357.68 43.8818C439.969 46.8997 496.368 67.6102 496.368 67.6102C488.471 69.0456 480.456 69.7325 472.431 69.6615Z" fill="url(#paint7_linear_26_24744)"/>
<path d="M229.711 68.2203C174.18 92.7968 111.467 73.0528 62.4287 59.9756C94.0222 68.3979 94.3774 62.2636 147.263 64.2558C176.331 68.457 204.353 70.2519 229.711 68.2203Z" fill="url(#paint8_linear_26_24744)"/>
<defs>
<linearGradient id="paint0_linear_26_24744" x1="692.687" y1="188.361" x2="-39.1336" y2="362.217" gradientUnits="userSpaceOnUse">
<stop stop-color="#35A0FF"/>
<stop offset="0.0001" stop-color="#F8F6FF"/>
<stop offset="1" stop-color="#020820"/>
</linearGradient>
<linearGradient id="paint1_linear_26_24744" x1="32.5285" y1="43.0627" x2="496.367" y2="43.0627" gradientUnits="userSpaceOnUse">
<stop stop-color="white"/>
<stop offset="1" stop-color="#020820"/>
</linearGradient>
<linearGradient id="paint2_linear_26_24744" x1="0.0913554" y1="62.455" x2="229.712" y2="62.455" gradientUnits="userSpaceOnUse">
<stop stop-color="white"/>
<stop offset="1" stop-color="#020820"/>
</linearGradient>
<linearGradient id="paint3_linear_26_24744" x1="-0.000102374" y1="67.5145" x2="48.4956" y2="67.5145" gradientUnits="userSpaceOnUse">
<stop stop-color="white"/>
<stop offset="1" stop-color="#020820"/>
</linearGradient>
<linearGradient id="paint4_linear_26_24744" x1="333.557" y1="83.3822" x2="441.458" y2="83.3822" gradientUnits="userSpaceOnUse">
<stop stop-color="white"/>
<stop offset="1" stop-color="#020820"/>
</linearGradient>
<linearGradient id="paint5_linear_26_24744" x1="387.201" y1="62.158" x2="499.925" y2="109.663" gradientUnits="userSpaceOnUse">
<stop stop-color="white"/>
<stop offset="1" stop-color="#020820"/>
</linearGradient>
<linearGradient id="paint6_linear_26_24744" x1="32.5287" y1="22.6328" x2="230.792" y2="22.6328" gradientUnits="userSpaceOnUse">
<stop stop-color="white"/>
<stop offset="1" stop-color="#020820"/>
</linearGradient>
<linearGradient id="paint7_linear_26_24744" x1="357.679" y1="64.9823" x2="496.368" y2="64.9823" gradientUnits="userSpaceOnUse">
<stop stop-color="white"/>
<stop offset="1" stop-color="#020820"/>
</linearGradient>
<linearGradient id="paint8_linear_26_24744" x1="224.511" y1="77.5292" x2="83.7816" y2="61.499" gradientUnits="userSpaceOnUse">
<stop stop-color="#35A0FF"/>
<stop offset="0.0001" stop-color="#F8F6FF"/>
<stop offset="1" stop-color="#020820"/>
</linearGradient>
</defs>
</svg>
